G04 #@! TF.GenerationSoftware,KiCad,Pcbnew,9.0.7*
G04 #@! TF.CreationDate,2026-02-22T02:57:33-08:00*
G04 #@! TF.ProjectId,Cup Cover,43757020-436f-4766-9572-2e6b69636164,rev?*
G04 #@! TF.SameCoordinates,Original*
G04 #@! TF.FileFunction,Legend,Top*
G04 #@! TF.FilePolarity,Positive*
%FSLAX46Y46*%
G04 Gerber Fmt 4.6, Leading zero omitted, Abs format (unit mm)*
G04 Created by KiCad (PCBNEW 9.0.7) date 2026-02-22 02:57:33*
%MOMM*%
%LPD*%
G01*
G04 APERTURE LIST*
G04 Aperture macros list*
%AMRoundRect*
0 Rectangle with rounded corners*
0 $1 Rounding radius*
0 $2 $3 $4 $5 $6 $7 $8 $9 X,Y pos of 4 corners*
0 Add a 4 corners polygon primitive as box body*
4,1,4,$2,$3,$4,$5,$6,$7,$8,$9,$2,$3,0*
0 Add four circle primitives for the rounded corners*
1,1,$1+$1,$2,$3*
1,1,$1+$1,$4,$5*
1,1,$1+$1,$6,$7*
1,1,$1+$1,$8,$9*
0 Add four rect primitives between the rounded corners*
20,1,$1+$1,$2,$3,$4,$5,0*
20,1,$1+$1,$4,$5,$6,$7,0*
20,1,$1+$1,$6,$7,$8,$9,0*
20,1,$1+$1,$8,$9,$2,$3,0*%
G04 Aperture macros list end*
%ADD10C,0.100000*%
%ADD11C,0.150000*%
%ADD12C,0.098425*%
%ADD13C,0.120000*%
%ADD14C,0.127000*%
%ADD15C,0.200000*%
%ADD16RoundRect,0.250000X-0.375000X-0.625000X0.375000X-0.625000X0.375000X0.625000X-0.375000X0.625000X0*%
%ADD17C,1.734000*%
%ADD18C,18.104000*%
%ADD19RoundRect,0.102000X2.850000X3.050000X-2.850000X3.050000X-2.850000X-3.050000X2.850000X-3.050000X0*%
%ADD20RoundRect,0.102000X-0.750000X-0.700000X0.750000X-0.700000X0.750000X0.700000X-0.750000X0.700000X0*%
%ADD21RoundRect,0.150000X0.150000X-0.512500X0.150000X0.512500X-0.150000X0.512500X-0.150000X-0.512500X0*%
%ADD22RoundRect,0.102000X0.485000X0.865000X-0.485000X0.865000X-0.485000X-0.865000X0.485000X-0.865000X0*%
%ADD23RoundRect,0.250000X0.312500X0.625000X-0.312500X0.625000X-0.312500X-0.625000X0.312500X-0.625000X0*%
G04 APERTURE END LIST*
D10*
X64000000Y-62000000D02*
X65000000Y-62000000D01*
X64500000Y-61500000D02*
X64500000Y-62500000D01*
X78875312Y-67372419D02*
X78541979Y-66896228D01*
X78303884Y-67372419D02*
X78303884Y-66372419D01*
X78303884Y-66372419D02*
X78684836Y-66372419D01*
X78684836Y-66372419D02*
X78780074Y-66420038D01*
X78780074Y-66420038D02*
X78827693Y-66467657D01*
X78827693Y-66467657D02*
X78875312Y-66562895D01*
X78875312Y-66562895D02*
X78875312Y-66705752D01*
X78875312Y-66705752D02*
X78827693Y-66800990D01*
X78827693Y-66800990D02*
X78780074Y-66848609D01*
X78780074Y-66848609D02*
X78684836Y-66896228D01*
X78684836Y-66896228D02*
X78303884Y-66896228D01*
X79684836Y-67324800D02*
X79589598Y-67372419D01*
X79589598Y-67372419D02*
X79399122Y-67372419D01*
X79399122Y-67372419D02*
X79303884Y-67324800D01*
X79303884Y-67324800D02*
X79256265Y-67229561D01*
X79256265Y-67229561D02*
X79256265Y-66848609D01*
X79256265Y-66848609D02*
X79303884Y-66753371D01*
X79303884Y-66753371D02*
X79399122Y-66705752D01*
X79399122Y-66705752D02*
X79589598Y-66705752D01*
X79589598Y-66705752D02*
X79684836Y-66753371D01*
X79684836Y-66753371D02*
X79732455Y-66848609D01*
X79732455Y-66848609D02*
X79732455Y-66943847D01*
X79732455Y-66943847D02*
X79256265Y-67039085D01*
X80541979Y-67324800D02*
X80446741Y-67372419D01*
X80446741Y-67372419D02*
X80256265Y-67372419D01*
X80256265Y-67372419D02*
X80161027Y-67324800D01*
X80161027Y-67324800D02*
X80113408Y-67229561D01*
X80113408Y-67229561D02*
X80113408Y-66848609D01*
X80113408Y-66848609D02*
X80161027Y-66753371D01*
X80161027Y-66753371D02*
X80256265Y-66705752D01*
X80256265Y-66705752D02*
X80446741Y-66705752D01*
X80446741Y-66705752D02*
X80541979Y-66753371D01*
X80541979Y-66753371D02*
X80589598Y-66848609D01*
X80589598Y-66848609D02*
X80589598Y-66943847D01*
X80589598Y-66943847D02*
X80113408Y-67039085D01*
X81446741Y-67372419D02*
X81446741Y-66372419D01*
X81446741Y-67324800D02*
X81351503Y-67372419D01*
X81351503Y-67372419D02*
X81161027Y-67372419D01*
X81161027Y-67372419D02*
X81065789Y-67324800D01*
X81065789Y-67324800D02*
X81018170Y-67277180D01*
X81018170Y-67277180D02*
X80970551Y-67181942D01*
X80970551Y-67181942D02*
X80970551Y-66896228D01*
X80970551Y-66896228D02*
X81018170Y-66800990D01*
X81018170Y-66800990D02*
X81065789Y-66753371D01*
X81065789Y-66753371D02*
X81161027Y-66705752D01*
X81161027Y-66705752D02*
X81351503Y-66705752D01*
X81351503Y-66705752D02*
X81446741Y-66753371D01*
X82637218Y-67324800D02*
X82780075Y-67372419D01*
X82780075Y-67372419D02*
X83018170Y-67372419D01*
X83018170Y-67372419D02*
X83113408Y-67324800D01*
X83113408Y-67324800D02*
X83161027Y-67277180D01*
X83161027Y-67277180D02*
X83208646Y-67181942D01*
X83208646Y-67181942D02*
X83208646Y-67086704D01*
X83208646Y-67086704D02*
X83161027Y-66991466D01*
X83161027Y-66991466D02*
X83113408Y-66943847D01*
X83113408Y-66943847D02*
X83018170Y-66896228D01*
X83018170Y-66896228D02*
X82827694Y-66848609D01*
X82827694Y-66848609D02*
X82732456Y-66800990D01*
X82732456Y-66800990D02*
X82684837Y-66753371D01*
X82684837Y-66753371D02*
X82637218Y-66658133D01*
X82637218Y-66658133D02*
X82637218Y-66562895D01*
X82637218Y-66562895D02*
X82684837Y-66467657D01*
X82684837Y-66467657D02*
X82732456Y-66420038D01*
X82732456Y-66420038D02*
X82827694Y-66372419D01*
X82827694Y-66372419D02*
X83065789Y-66372419D01*
X83065789Y-66372419D02*
X83208646Y-66420038D01*
X83541980Y-66705752D02*
X83732456Y-67372419D01*
X83732456Y-67372419D02*
X83922932Y-66896228D01*
X83922932Y-66896228D02*
X84113408Y-67372419D01*
X84113408Y-67372419D02*
X84303884Y-66705752D01*
X84684837Y-67372419D02*
X84684837Y-66705752D01*
X84684837Y-66372419D02*
X84637218Y-66420038D01*
X84637218Y-66420038D02*
X84684837Y-66467657D01*
X84684837Y-66467657D02*
X84732456Y-66420038D01*
X84732456Y-66420038D02*
X84684837Y-66372419D01*
X84684837Y-66372419D02*
X84684837Y-66467657D01*
X85018170Y-66705752D02*
X85399122Y-66705752D01*
X85161027Y-66372419D02*
X85161027Y-67229561D01*
X85161027Y-67229561D02*
X85208646Y-67324800D01*
X85208646Y-67324800D02*
X85303884Y-67372419D01*
X85303884Y-67372419D02*
X85399122Y-67372419D01*
X86161027Y-67324800D02*
X86065789Y-67372419D01*
X86065789Y-67372419D02*
X85875313Y-67372419D01*
X85875313Y-67372419D02*
X85780075Y-67324800D01*
X85780075Y-67324800D02*
X85732456Y-67277180D01*
X85732456Y-67277180D02*
X85684837Y-67181942D01*
X85684837Y-67181942D02*
X85684837Y-66896228D01*
X85684837Y-66896228D02*
X85732456Y-66800990D01*
X85732456Y-66800990D02*
X85780075Y-66753371D01*
X85780075Y-66753371D02*
X85875313Y-66705752D01*
X85875313Y-66705752D02*
X86065789Y-66705752D01*
X86065789Y-66705752D02*
X86161027Y-66753371D01*
X86589599Y-67372419D02*
X86589599Y-66372419D01*
X87018170Y-67372419D02*
X87018170Y-66848609D01*
X87018170Y-66848609D02*
X86970551Y-66753371D01*
X86970551Y-66753371D02*
X86875313Y-66705752D01*
X86875313Y-66705752D02*
X86732456Y-66705752D01*
X86732456Y-66705752D02*
X86637218Y-66753371D01*
X86637218Y-66753371D02*
X86589599Y-66800990D01*
D11*
X60361905Y-60624819D02*
X60361905Y-59624819D01*
X60361905Y-59624819D02*
X60600000Y-59624819D01*
X60600000Y-59624819D02*
X60742857Y-59672438D01*
X60742857Y-59672438D02*
X60838095Y-59767676D01*
X60838095Y-59767676D02*
X60885714Y-59862914D01*
X60885714Y-59862914D02*
X60933333Y-60053390D01*
X60933333Y-60053390D02*
X60933333Y-60196247D01*
X60933333Y-60196247D02*
X60885714Y-60386723D01*
X60885714Y-60386723D02*
X60838095Y-60481961D01*
X60838095Y-60481961D02*
X60742857Y-60577200D01*
X60742857Y-60577200D02*
X60600000Y-60624819D01*
X60600000Y-60624819D02*
X60361905Y-60624819D01*
X61314286Y-59720057D02*
X61361905Y-59672438D01*
X61361905Y-59672438D02*
X61457143Y-59624819D01*
X61457143Y-59624819D02*
X61695238Y-59624819D01*
X61695238Y-59624819D02*
X61790476Y-59672438D01*
X61790476Y-59672438D02*
X61838095Y-59720057D01*
X61838095Y-59720057D02*
X61885714Y-59815295D01*
X61885714Y-59815295D02*
X61885714Y-59910533D01*
X61885714Y-59910533D02*
X61838095Y-60053390D01*
X61838095Y-60053390D02*
X61266667Y-60624819D01*
X61266667Y-60624819D02*
X61885714Y-60624819D01*
X60457142Y-64284819D02*
X59980952Y-64284819D01*
X59980952Y-64284819D02*
X59980952Y-63284819D01*
X60790476Y-63761009D02*
X61123809Y-63761009D01*
X61266666Y-64284819D02*
X60790476Y-64284819D01*
X60790476Y-64284819D02*
X60790476Y-63284819D01*
X60790476Y-63284819D02*
X61266666Y-63284819D01*
X61695238Y-64284819D02*
X61695238Y-63284819D01*
X61695238Y-63284819D02*
X61933333Y-63284819D01*
X61933333Y-63284819D02*
X62076190Y-63332438D01*
X62076190Y-63332438D02*
X62171428Y-63427676D01*
X62171428Y-63427676D02*
X62219047Y-63522914D01*
X62219047Y-63522914D02*
X62266666Y-63713390D01*
X62266666Y-63713390D02*
X62266666Y-63856247D01*
X62266666Y-63856247D02*
X62219047Y-64046723D01*
X62219047Y-64046723D02*
X62171428Y-64141961D01*
X62171428Y-64141961D02*
X62076190Y-64237200D01*
X62076190Y-64237200D02*
X61933333Y-64284819D01*
X61933333Y-64284819D02*
X61695238Y-64284819D01*
X76068667Y-64491876D02*
X76068667Y-64949019D01*
X76068667Y-64949019D02*
X76038190Y-65040447D01*
X76038190Y-65040447D02*
X75977238Y-65101400D01*
X75977238Y-65101400D02*
X75885809Y-65131876D01*
X75885809Y-65131876D02*
X75824857Y-65131876D01*
X76342952Y-64552828D02*
X76373428Y-64522352D01*
X76373428Y-64522352D02*
X76434381Y-64491876D01*
X76434381Y-64491876D02*
X76586762Y-64491876D01*
X76586762Y-64491876D02*
X76647714Y-64522352D01*
X76647714Y-64522352D02*
X76678190Y-64552828D01*
X76678190Y-64552828D02*
X76708667Y-64613780D01*
X76708667Y-64613780D02*
X76708667Y-64674733D01*
X76708667Y-64674733D02*
X76678190Y-64766161D01*
X76678190Y-64766161D02*
X76312476Y-65131876D01*
X76312476Y-65131876D02*
X76708667Y-65131876D01*
X58006533Y-49100000D02*
X58073200Y-48900000D01*
X58073200Y-48900000D02*
X58139866Y-48833333D01*
X58139866Y-48833333D02*
X58273200Y-48766666D01*
X58273200Y-48766666D02*
X58473200Y-48766666D01*
X58473200Y-48766666D02*
X58606533Y-48833333D01*
X58606533Y-48833333D02*
X58673200Y-48900000D01*
X58673200Y-48900000D02*
X58739866Y-49033333D01*
X58739866Y-49033333D02*
X58739866Y-49566666D01*
X58739866Y-49566666D02*
X57339866Y-49566666D01*
X57339866Y-49566666D02*
X57339866Y-49100000D01*
X57339866Y-49100000D02*
X57406533Y-48966666D01*
X57406533Y-48966666D02*
X57473200Y-48900000D01*
X57473200Y-48900000D02*
X57606533Y-48833333D01*
X57606533Y-48833333D02*
X57739866Y-48833333D01*
X57739866Y-48833333D02*
X57873200Y-48900000D01*
X57873200Y-48900000D02*
X57939866Y-48966666D01*
X57939866Y-48966666D02*
X58006533Y-49100000D01*
X58006533Y-49100000D02*
X58006533Y-49566666D01*
X57339866Y-48366666D02*
X57339866Y-47566666D01*
X58739866Y-47966666D02*
X57339866Y-47966666D01*
X58739866Y-46366666D02*
X58739866Y-47166666D01*
X58739866Y-46766666D02*
X57339866Y-46766666D01*
X57339866Y-46766666D02*
X57539866Y-46899999D01*
X57539866Y-46899999D02*
X57673200Y-47033333D01*
X57673200Y-47033333D02*
X57739866Y-47166666D01*
X92406533Y-53966667D02*
X92473200Y-53766667D01*
X92473200Y-53766667D02*
X92539866Y-53700000D01*
X92539866Y-53700000D02*
X92673200Y-53633333D01*
X92673200Y-53633333D02*
X92873200Y-53633333D01*
X92873200Y-53633333D02*
X93006533Y-53700000D01*
X93006533Y-53700000D02*
X93073200Y-53766667D01*
X93073200Y-53766667D02*
X93139866Y-53900000D01*
X93139866Y-53900000D02*
X93139866Y-54433333D01*
X93139866Y-54433333D02*
X91739866Y-54433333D01*
X91739866Y-54433333D02*
X91739866Y-53966667D01*
X91739866Y-53966667D02*
X91806533Y-53833333D01*
X91806533Y-53833333D02*
X91873200Y-53766667D01*
X91873200Y-53766667D02*
X92006533Y-53700000D01*
X92006533Y-53700000D02*
X92139866Y-53700000D01*
X92139866Y-53700000D02*
X92273200Y-53766667D01*
X92273200Y-53766667D02*
X92339866Y-53833333D01*
X92339866Y-53833333D02*
X92406533Y-53966667D01*
X92406533Y-53966667D02*
X92406533Y-54433333D01*
X93139866Y-52433333D02*
X92406533Y-52433333D01*
X92406533Y-52433333D02*
X92273200Y-52500000D01*
X92273200Y-52500000D02*
X92206533Y-52633333D01*
X92206533Y-52633333D02*
X92206533Y-52900000D01*
X92206533Y-52900000D02*
X92273200Y-53033333D01*
X93073200Y-52433333D02*
X93139866Y-52566667D01*
X93139866Y-52566667D02*
X93139866Y-52900000D01*
X93139866Y-52900000D02*
X93073200Y-53033333D01*
X93073200Y-53033333D02*
X92939866Y-53100000D01*
X92939866Y-53100000D02*
X92806533Y-53100000D01*
X92806533Y-53100000D02*
X92673200Y-53033333D01*
X92673200Y-53033333D02*
X92606533Y-52900000D01*
X92606533Y-52900000D02*
X92606533Y-52566667D01*
X92606533Y-52566667D02*
X92539866Y-52433333D01*
X92206533Y-51966666D02*
X92206533Y-51433333D01*
X91739866Y-51766666D02*
X92939866Y-51766666D01*
X92939866Y-51766666D02*
X93073200Y-51700000D01*
X93073200Y-51700000D02*
X93139866Y-51566666D01*
X93139866Y-51566666D02*
X93139866Y-51433333D01*
X92206533Y-51166666D02*
X92206533Y-50633333D01*
X91739866Y-50966666D02*
X92939866Y-50966666D01*
X92939866Y-50966666D02*
X93073200Y-50900000D01*
X93073200Y-50900000D02*
X93139866Y-50766666D01*
X93139866Y-50766666D02*
X93139866Y-50633333D01*
X93073200Y-49633333D02*
X93139866Y-49766666D01*
X93139866Y-49766666D02*
X93139866Y-50033333D01*
X93139866Y-50033333D02*
X93073200Y-50166666D01*
X93073200Y-50166666D02*
X92939866Y-50233333D01*
X92939866Y-50233333D02*
X92406533Y-50233333D01*
X92406533Y-50233333D02*
X92273200Y-50166666D01*
X92273200Y-50166666D02*
X92206533Y-50033333D01*
X92206533Y-50033333D02*
X92206533Y-49766666D01*
X92206533Y-49766666D02*
X92273200Y-49633333D01*
X92273200Y-49633333D02*
X92406533Y-49566666D01*
X92406533Y-49566666D02*
X92539866Y-49566666D01*
X92539866Y-49566666D02*
X92673200Y-50233333D01*
X93139866Y-48966666D02*
X92206533Y-48966666D01*
X92473200Y-48966666D02*
X92339866Y-48900000D01*
X92339866Y-48900000D02*
X92273200Y-48833333D01*
X92273200Y-48833333D02*
X92206533Y-48700000D01*
X92206533Y-48700000D02*
X92206533Y-48566666D01*
X92206533Y-48233333D02*
X93139866Y-47899999D01*
X92206533Y-47566666D02*
X93139866Y-47899999D01*
X93139866Y-47899999D02*
X93473200Y-48033333D01*
X93473200Y-48033333D02*
X93539866Y-48099999D01*
X93539866Y-48099999D02*
X93606533Y-48233333D01*
X93273200Y-47366666D02*
X93273200Y-46299999D01*
X93006533Y-45166665D02*
X93073200Y-45233332D01*
X93073200Y-45233332D02*
X93139866Y-45433332D01*
X93139866Y-45433332D02*
X93139866Y-45566665D01*
X93139866Y-45566665D02*
X93073200Y-45766665D01*
X93073200Y-45766665D02*
X92939866Y-45899999D01*
X92939866Y-45899999D02*
X92806533Y-45966665D01*
X92806533Y-45966665D02*
X92539866Y-46033332D01*
X92539866Y-46033332D02*
X92339866Y-46033332D01*
X92339866Y-46033332D02*
X92073200Y-45966665D01*
X92073200Y-45966665D02*
X91939866Y-45899999D01*
X91939866Y-45899999D02*
X91806533Y-45766665D01*
X91806533Y-45766665D02*
X91739866Y-45566665D01*
X91739866Y-45566665D02*
X91739866Y-45433332D01*
X91739866Y-45433332D02*
X91806533Y-45233332D01*
X91806533Y-45233332D02*
X91873200Y-45166665D01*
X93073200Y-44033332D02*
X93139866Y-44166665D01*
X93139866Y-44166665D02*
X93139866Y-44433332D01*
X93139866Y-44433332D02*
X93073200Y-44566665D01*
X93073200Y-44566665D02*
X92939866Y-44633332D01*
X92939866Y-44633332D02*
X92406533Y-44633332D01*
X92406533Y-44633332D02*
X92273200Y-44566665D01*
X92273200Y-44566665D02*
X92206533Y-44433332D01*
X92206533Y-44433332D02*
X92206533Y-44166665D01*
X92206533Y-44166665D02*
X92273200Y-44033332D01*
X92273200Y-44033332D02*
X92406533Y-43966665D01*
X92406533Y-43966665D02*
X92539866Y-43966665D01*
X92539866Y-43966665D02*
X92673200Y-44633332D01*
X93139866Y-43166665D02*
X93073200Y-43299999D01*
X93073200Y-43299999D02*
X92939866Y-43366665D01*
X92939866Y-43366665D02*
X91739866Y-43366665D01*
X93139866Y-42433332D02*
X93073200Y-42566666D01*
X93073200Y-42566666D02*
X92939866Y-42633332D01*
X92939866Y-42633332D02*
X91739866Y-42633332D01*
X83991667Y-59292200D02*
X84134524Y-59339819D01*
X84134524Y-59339819D02*
X84372619Y-59339819D01*
X84372619Y-59339819D02*
X84467857Y-59292200D01*
X84467857Y-59292200D02*
X84515476Y-59244580D01*
X84515476Y-59244580D02*
X84563095Y-59149342D01*
X84563095Y-59149342D02*
X84563095Y-59054104D01*
X84563095Y-59054104D02*
X84515476Y-58958866D01*
X84515476Y-58958866D02*
X84467857Y-58911247D01*
X84467857Y-58911247D02*
X84372619Y-58863628D01*
X84372619Y-58863628D02*
X84182143Y-58816009D01*
X84182143Y-58816009D02*
X84086905Y-58768390D01*
X84086905Y-58768390D02*
X84039286Y-58720771D01*
X84039286Y-58720771D02*
X83991667Y-58625533D01*
X83991667Y-58625533D02*
X83991667Y-58530295D01*
X83991667Y-58530295D02*
X84039286Y-58435057D01*
X84039286Y-58435057D02*
X84086905Y-58387438D01*
X84086905Y-58387438D02*
X84182143Y-58339819D01*
X84182143Y-58339819D02*
X84420238Y-58339819D01*
X84420238Y-58339819D02*
X84563095Y-58387438D01*
X84896429Y-58339819D02*
X85134524Y-59339819D01*
X85134524Y-59339819D02*
X85325000Y-58625533D01*
X85325000Y-58625533D02*
X85515476Y-59339819D01*
X85515476Y-59339819D02*
X85753572Y-58339819D01*
X86658333Y-59339819D02*
X86086905Y-59339819D01*
X86372619Y-59339819D02*
X86372619Y-58339819D01*
X86372619Y-58339819D02*
X86277381Y-58482676D01*
X86277381Y-58482676D02*
X86182143Y-58577914D01*
X86182143Y-58577914D02*
X86086905Y-58625533D01*
X90452381Y-62407200D02*
X90595238Y-62454819D01*
X90595238Y-62454819D02*
X90833333Y-62454819D01*
X90833333Y-62454819D02*
X90928571Y-62407200D01*
X90928571Y-62407200D02*
X90976190Y-62359580D01*
X90976190Y-62359580D02*
X91023809Y-62264342D01*
X91023809Y-62264342D02*
X91023809Y-62169104D01*
X91023809Y-62169104D02*
X90976190Y-62073866D01*
X90976190Y-62073866D02*
X90928571Y-62026247D01*
X90928571Y-62026247D02*
X90833333Y-61978628D01*
X90833333Y-61978628D02*
X90642857Y-61931009D01*
X90642857Y-61931009D02*
X90547619Y-61883390D01*
X90547619Y-61883390D02*
X90500000Y-61835771D01*
X90500000Y-61835771D02*
X90452381Y-61740533D01*
X90452381Y-61740533D02*
X90452381Y-61645295D01*
X90452381Y-61645295D02*
X90500000Y-61550057D01*
X90500000Y-61550057D02*
X90547619Y-61502438D01*
X90547619Y-61502438D02*
X90642857Y-61454819D01*
X90642857Y-61454819D02*
X90880952Y-61454819D01*
X90880952Y-61454819D02*
X91023809Y-61502438D01*
X91357143Y-61454819D02*
X91595238Y-62454819D01*
X91595238Y-62454819D02*
X91785714Y-61740533D01*
X91785714Y-61740533D02*
X91976190Y-62454819D01*
X91976190Y-62454819D02*
X92214286Y-61454819D01*
X92357143Y-62550057D02*
X93119047Y-62550057D01*
X93357143Y-62454819D02*
X93357143Y-61454819D01*
X93357143Y-61454819D02*
X93738095Y-61454819D01*
X93738095Y-61454819D02*
X93833333Y-61502438D01*
X93833333Y-61502438D02*
X93880952Y-61550057D01*
X93880952Y-61550057D02*
X93928571Y-61645295D01*
X93928571Y-61645295D02*
X93928571Y-61788152D01*
X93928571Y-61788152D02*
X93880952Y-61883390D01*
X93880952Y-61883390D02*
X93833333Y-61931009D01*
X93833333Y-61931009D02*
X93738095Y-61978628D01*
X93738095Y-61978628D02*
X93357143Y-61978628D01*
X94785714Y-61788152D02*
X94785714Y-62454819D01*
X94357143Y-61788152D02*
X94357143Y-62311961D01*
X94357143Y-62311961D02*
X94404762Y-62407200D01*
X94404762Y-62407200D02*
X94500000Y-62454819D01*
X94500000Y-62454819D02*
X94642857Y-62454819D01*
X94642857Y-62454819D02*
X94738095Y-62407200D01*
X94738095Y-62407200D02*
X94785714Y-62359580D01*
X95214286Y-62407200D02*
X95309524Y-62454819D01*
X95309524Y-62454819D02*
X95500000Y-62454819D01*
X95500000Y-62454819D02*
X95595238Y-62407200D01*
X95595238Y-62407200D02*
X95642857Y-62311961D01*
X95642857Y-62311961D02*
X95642857Y-62264342D01*
X95642857Y-62264342D02*
X95595238Y-62169104D01*
X95595238Y-62169104D02*
X95500000Y-62121485D01*
X95500000Y-62121485D02*
X95357143Y-62121485D01*
X95357143Y-62121485D02*
X95261905Y-62073866D01*
X95261905Y-62073866D02*
X95214286Y-61978628D01*
X95214286Y-61978628D02*
X95214286Y-61931009D01*
X95214286Y-61931009D02*
X95261905Y-61835771D01*
X95261905Y-61835771D02*
X95357143Y-61788152D01*
X95357143Y-61788152D02*
X95500000Y-61788152D01*
X95500000Y-61788152D02*
X95595238Y-61835771D01*
X96071429Y-62454819D02*
X96071429Y-61454819D01*
X96500000Y-62454819D02*
X96500000Y-61931009D01*
X96500000Y-61931009D02*
X96452381Y-61835771D01*
X96452381Y-61835771D02*
X96357143Y-61788152D01*
X96357143Y-61788152D02*
X96214286Y-61788152D01*
X96214286Y-61788152D02*
X96119048Y-61835771D01*
X96119048Y-61835771D02*
X96071429Y-61883390D01*
X89568667Y-64491876D02*
X89568667Y-64949019D01*
X89568667Y-64949019D02*
X89538190Y-65040447D01*
X89538190Y-65040447D02*
X89477238Y-65101400D01*
X89477238Y-65101400D02*
X89385809Y-65131876D01*
X89385809Y-65131876D02*
X89324857Y-65131876D01*
X90208667Y-65131876D02*
X89842952Y-65131876D01*
X90025809Y-65131876D02*
X90025809Y-64491876D01*
X90025809Y-64491876D02*
X89964857Y-64583304D01*
X89964857Y-64583304D02*
X89903905Y-64644257D01*
X89903905Y-64644257D02*
X89842952Y-64674733D01*
X68261905Y-61454819D02*
X68261905Y-60454819D01*
X68261905Y-60454819D02*
X68500000Y-60454819D01*
X68500000Y-60454819D02*
X68642857Y-60502438D01*
X68642857Y-60502438D02*
X68738095Y-60597676D01*
X68738095Y-60597676D02*
X68785714Y-60692914D01*
X68785714Y-60692914D02*
X68833333Y-60883390D01*
X68833333Y-60883390D02*
X68833333Y-61026247D01*
X68833333Y-61026247D02*
X68785714Y-61216723D01*
X68785714Y-61216723D02*
X68738095Y-61311961D01*
X68738095Y-61311961D02*
X68642857Y-61407200D01*
X68642857Y-61407200D02*
X68500000Y-61454819D01*
X68500000Y-61454819D02*
X68261905Y-61454819D01*
X69785714Y-61454819D02*
X69214286Y-61454819D01*
X69500000Y-61454819D02*
X69500000Y-60454819D01*
X69500000Y-60454819D02*
X69404762Y-60597676D01*
X69404762Y-60597676D02*
X69309524Y-60692914D01*
X69309524Y-60692914D02*
X69214286Y-60740533D01*
X68714285Y-64050057D02*
X68619047Y-64002438D01*
X68619047Y-64002438D02*
X68523809Y-63907200D01*
X68523809Y-63907200D02*
X68380952Y-63764342D01*
X68380952Y-63764342D02*
X68285714Y-63716723D01*
X68285714Y-63716723D02*
X68190476Y-63716723D01*
X68238095Y-63954819D02*
X68142857Y-63907200D01*
X68142857Y-63907200D02*
X68047619Y-63811961D01*
X68047619Y-63811961D02*
X68000000Y-63621485D01*
X68000000Y-63621485D02*
X68000000Y-63288152D01*
X68000000Y-63288152D02*
X68047619Y-63097676D01*
X68047619Y-63097676D02*
X68142857Y-63002438D01*
X68142857Y-63002438D02*
X68238095Y-62954819D01*
X68238095Y-62954819D02*
X68428571Y-62954819D01*
X68428571Y-62954819D02*
X68523809Y-63002438D01*
X68523809Y-63002438D02*
X68619047Y-63097676D01*
X68619047Y-63097676D02*
X68666666Y-63288152D01*
X68666666Y-63288152D02*
X68666666Y-63621485D01*
X68666666Y-63621485D02*
X68619047Y-63811961D01*
X68619047Y-63811961D02*
X68523809Y-63907200D01*
X68523809Y-63907200D02*
X68428571Y-63954819D01*
X68428571Y-63954819D02*
X68238095Y-63954819D01*
X68857143Y-64050057D02*
X69619047Y-64050057D01*
X69809524Y-63907200D02*
X69952381Y-63954819D01*
X69952381Y-63954819D02*
X70190476Y-63954819D01*
X70190476Y-63954819D02*
X70285714Y-63907200D01*
X70285714Y-63907200D02*
X70333333Y-63859580D01*
X70333333Y-63859580D02*
X70380952Y-63764342D01*
X70380952Y-63764342D02*
X70380952Y-63669104D01*
X70380952Y-63669104D02*
X70333333Y-63573866D01*
X70333333Y-63573866D02*
X70285714Y-63526247D01*
X70285714Y-63526247D02*
X70190476Y-63478628D01*
X70190476Y-63478628D02*
X70000000Y-63431009D01*
X70000000Y-63431009D02*
X69904762Y-63383390D01*
X69904762Y-63383390D02*
X69857143Y-63335771D01*
X69857143Y-63335771D02*
X69809524Y-63240533D01*
X69809524Y-63240533D02*
X69809524Y-63145295D01*
X69809524Y-63145295D02*
X69857143Y-63050057D01*
X69857143Y-63050057D02*
X69904762Y-63002438D01*
X69904762Y-63002438D02*
X70000000Y-62954819D01*
X70000000Y-62954819D02*
X70238095Y-62954819D01*
X70238095Y-62954819D02*
X70380952Y-63002438D01*
X71380952Y-63859580D02*
X71333333Y-63907200D01*
X71333333Y-63907200D02*
X71190476Y-63954819D01*
X71190476Y-63954819D02*
X71095238Y-63954819D01*
X71095238Y-63954819D02*
X70952381Y-63907200D01*
X70952381Y-63907200D02*
X70857143Y-63811961D01*
X70857143Y-63811961D02*
X70809524Y-63716723D01*
X70809524Y-63716723D02*
X70761905Y-63526247D01*
X70761905Y-63526247D02*
X70761905Y-63383390D01*
X70761905Y-63383390D02*
X70809524Y-63192914D01*
X70809524Y-63192914D02*
X70857143Y-63097676D01*
X70857143Y-63097676D02*
X70952381Y-63002438D01*
X70952381Y-63002438D02*
X71095238Y-62954819D01*
X71095238Y-62954819D02*
X71190476Y-62954819D01*
X71190476Y-62954819D02*
X71333333Y-63002438D01*
X71333333Y-63002438D02*
X71380952Y-63050057D01*
X72380952Y-63954819D02*
X72047619Y-63478628D01*
X71809524Y-63954819D02*
X71809524Y-62954819D01*
X71809524Y-62954819D02*
X72190476Y-62954819D01*
X72190476Y-62954819D02*
X72285714Y-63002438D01*
X72285714Y-63002438D02*
X72333333Y-63050057D01*
X72333333Y-63050057D02*
X72380952Y-63145295D01*
X72380952Y-63145295D02*
X72380952Y-63288152D01*
X72380952Y-63288152D02*
X72333333Y-63383390D01*
X72333333Y-63383390D02*
X72285714Y-63431009D01*
X72285714Y-63431009D02*
X72190476Y-63478628D01*
X72190476Y-63478628D02*
X71809524Y-63478628D01*
X72571429Y-64050057D02*
X73333333Y-64050057D01*
X73523810Y-63669104D02*
X74000000Y-63669104D01*
X73428572Y-63954819D02*
X73761905Y-62954819D01*
X73761905Y-62954819D02*
X74095238Y-63954819D01*
X74952381Y-63002438D02*
X74857143Y-62954819D01*
X74857143Y-62954819D02*
X74714286Y-62954819D01*
X74714286Y-62954819D02*
X74571429Y-63002438D01*
X74571429Y-63002438D02*
X74476191Y-63097676D01*
X74476191Y-63097676D02*
X74428572Y-63192914D01*
X74428572Y-63192914D02*
X74380953Y-63383390D01*
X74380953Y-63383390D02*
X74380953Y-63526247D01*
X74380953Y-63526247D02*
X74428572Y-63716723D01*
X74428572Y-63716723D02*
X74476191Y-63811961D01*
X74476191Y-63811961D02*
X74571429Y-63907200D01*
X74571429Y-63907200D02*
X74714286Y-63954819D01*
X74714286Y-63954819D02*
X74809524Y-63954819D01*
X74809524Y-63954819D02*
X74952381Y-63907200D01*
X74952381Y-63907200D02*
X75000000Y-63859580D01*
X75000000Y-63859580D02*
X75000000Y-63526247D01*
X75000000Y-63526247D02*
X74809524Y-63526247D01*
X75428572Y-63954819D02*
X75428572Y-62954819D01*
X76000000Y-63954819D02*
X75571429Y-63383390D01*
X76000000Y-62954819D02*
X75428572Y-63526247D01*
D12*
X61880000Y-68722452D02*
X61680000Y-68436738D01*
X61537143Y-68722452D02*
X61537143Y-68122452D01*
X61537143Y-68122452D02*
X61765714Y-68122452D01*
X61765714Y-68122452D02*
X61822857Y-68151023D01*
X61822857Y-68151023D02*
X61851428Y-68179595D01*
X61851428Y-68179595D02*
X61880000Y-68236738D01*
X61880000Y-68236738D02*
X61880000Y-68322452D01*
X61880000Y-68322452D02*
X61851428Y-68379595D01*
X61851428Y-68379595D02*
X61822857Y-68408166D01*
X61822857Y-68408166D02*
X61765714Y-68436738D01*
X61765714Y-68436738D02*
X61537143Y-68436738D01*
X62108571Y-68179595D02*
X62137143Y-68151023D01*
X62137143Y-68151023D02*
X62194286Y-68122452D01*
X62194286Y-68122452D02*
X62337143Y-68122452D01*
X62337143Y-68122452D02*
X62394286Y-68151023D01*
X62394286Y-68151023D02*
X62422857Y-68179595D01*
X62422857Y-68179595D02*
X62451428Y-68236738D01*
X62451428Y-68236738D02*
X62451428Y-68293881D01*
X62451428Y-68293881D02*
X62422857Y-68379595D01*
X62422857Y-68379595D02*
X62080000Y-68722452D01*
X62080000Y-68722452D02*
X62451428Y-68722452D01*
X59967533Y-65727014D02*
X59742561Y-65727014D01*
X59855047Y-65727014D02*
X59855047Y-65333313D01*
X59855047Y-65333313D02*
X59817552Y-65389556D01*
X59817552Y-65389556D02*
X59780057Y-65427052D01*
X59780057Y-65427052D02*
X59742561Y-65445799D01*
X60211253Y-65333313D02*
X60248748Y-65333313D01*
X60248748Y-65333313D02*
X60286243Y-65352061D01*
X60286243Y-65352061D02*
X60304991Y-65370809D01*
X60304991Y-65370809D02*
X60323739Y-65408304D01*
X60323739Y-65408304D02*
X60342486Y-65483295D01*
X60342486Y-65483295D02*
X60342486Y-65577033D01*
X60342486Y-65577033D02*
X60323739Y-65652024D01*
X60323739Y-65652024D02*
X60304991Y-65689519D01*
X60304991Y-65689519D02*
X60286243Y-65708267D01*
X60286243Y-65708267D02*
X60248748Y-65727014D01*
X60248748Y-65727014D02*
X60211253Y-65727014D01*
X60211253Y-65727014D02*
X60173757Y-65708267D01*
X60173757Y-65708267D02*
X60155010Y-65689519D01*
X60155010Y-65689519D02*
X60136262Y-65652024D01*
X60136262Y-65652024D02*
X60117514Y-65577033D01*
X60117514Y-65577033D02*
X60117514Y-65483295D01*
X60117514Y-65483295D02*
X60136262Y-65408304D01*
X60136262Y-65408304D02*
X60155010Y-65370809D01*
X60155010Y-65370809D02*
X60173757Y-65352061D01*
X60173757Y-65352061D02*
X60211253Y-65333313D01*
X60586206Y-65333313D02*
X60623701Y-65333313D01*
X60623701Y-65333313D02*
X60661196Y-65352061D01*
X60661196Y-65352061D02*
X60679944Y-65370809D01*
X60679944Y-65370809D02*
X60698692Y-65408304D01*
X60698692Y-65408304D02*
X60717439Y-65483295D01*
X60717439Y-65483295D02*
X60717439Y-65577033D01*
X60717439Y-65577033D02*
X60698692Y-65652024D01*
X60698692Y-65652024D02*
X60679944Y-65689519D01*
X60679944Y-65689519D02*
X60661196Y-65708267D01*
X60661196Y-65708267D02*
X60623701Y-65727014D01*
X60623701Y-65727014D02*
X60586206Y-65727014D01*
X60586206Y-65727014D02*
X60548710Y-65708267D01*
X60548710Y-65708267D02*
X60529963Y-65689519D01*
X60529963Y-65689519D02*
X60511215Y-65652024D01*
X60511215Y-65652024D02*
X60492467Y-65577033D01*
X60492467Y-65577033D02*
X60492467Y-65483295D01*
X60492467Y-65483295D02*
X60511215Y-65408304D01*
X60511215Y-65408304D02*
X60529963Y-65370809D01*
X60529963Y-65370809D02*
X60548710Y-65352061D01*
X60548710Y-65352061D02*
X60586206Y-65333313D01*
X70400000Y-68772452D02*
X70200000Y-68486738D01*
X70057143Y-68772452D02*
X70057143Y-68172452D01*
X70057143Y-68172452D02*
X70285714Y-68172452D01*
X70285714Y-68172452D02*
X70342857Y-68201023D01*
X70342857Y-68201023D02*
X70371428Y-68229595D01*
X70371428Y-68229595D02*
X70400000Y-68286738D01*
X70400000Y-68286738D02*
X70400000Y-68372452D01*
X70400000Y-68372452D02*
X70371428Y-68429595D01*
X70371428Y-68429595D02*
X70342857Y-68458166D01*
X70342857Y-68458166D02*
X70285714Y-68486738D01*
X70285714Y-68486738D02*
X70057143Y-68486738D01*
X70971428Y-68772452D02*
X70628571Y-68772452D01*
X70800000Y-68772452D02*
X70800000Y-68172452D01*
X70800000Y-68172452D02*
X70742857Y-68258166D01*
X70742857Y-68258166D02*
X70685714Y-68315309D01*
X70685714Y-68315309D02*
X70628571Y-68343881D01*
D11*
X68918452Y-65624819D02*
X68347024Y-65624819D01*
X68632738Y-65624819D02*
X68632738Y-64624819D01*
X68632738Y-64624819D02*
X68537500Y-64767676D01*
X68537500Y-64767676D02*
X68442262Y-64862914D01*
X68442262Y-64862914D02*
X68347024Y-64910533D01*
X69347024Y-65624819D02*
X69347024Y-64624819D01*
X69442262Y-65243866D02*
X69727976Y-65624819D01*
X69727976Y-64958152D02*
X69347024Y-65339104D01*
D13*
X58815000Y-60865000D02*
X58815000Y-63135000D01*
X58815000Y-63135000D02*
X62700000Y-63135000D01*
X62700000Y-60865000D02*
X58815000Y-60865000D01*
D14*
X74730000Y-65750000D02*
X74730000Y-68250000D01*
X74730000Y-68250000D02*
X77270000Y-68250000D01*
X77270000Y-65750000D02*
X74730000Y-65750000D01*
X77270000Y-68250000D02*
X77270000Y-65750000D01*
D15*
X74350000Y-67000000D02*
G75*
G02*
X74150000Y-67000000I-100000J0D01*
G01*
X74150000Y-67000000D02*
G75*
G02*
X74350000Y-67000000I100000J0D01*
G01*
D14*
X65050000Y-37150000D02*
X65050000Y-43000000D01*
X65050000Y-56950000D02*
X65050000Y-50000000D01*
X70100000Y-37150000D02*
X65050000Y-37150000D01*
X86150000Y-37150000D02*
X81100000Y-37150000D01*
X86150000Y-43000000D02*
X86150000Y-37150000D01*
X86150000Y-50000000D02*
X86150000Y-56950000D01*
X86150000Y-56950000D02*
X65050000Y-56950000D01*
X82250000Y-60100000D02*
X88250000Y-60100000D01*
X82250000Y-60950000D02*
X82250000Y-60100000D01*
X82250000Y-63050000D02*
X82250000Y-63900000D01*
X82250000Y-63900000D02*
X88250000Y-63900000D01*
X88250000Y-60100000D02*
X88250000Y-60950000D01*
X88250000Y-63900000D02*
X88250000Y-63050000D01*
D15*
X80630000Y-60790000D02*
G75*
G02*
X80430000Y-60790000I-100000J0D01*
G01*
X80430000Y-60790000D02*
G75*
G02*
X80630000Y-60790000I100000J0D01*
G01*
D14*
X88230000Y-65750000D02*
X88230000Y-68250000D01*
X88230000Y-68250000D02*
X90770000Y-68250000D01*
X90770000Y-65750000D02*
X88230000Y-65750000D01*
X90770000Y-68250000D02*
X90770000Y-65750000D01*
D15*
X87850000Y-67000000D02*
G75*
G02*
X87650000Y-67000000I-100000J0D01*
G01*
X87650000Y-67000000D02*
G75*
G02*
X87850000Y-67000000I100000J0D01*
G01*
D13*
X70440000Y-59727500D02*
X71440000Y-59727500D01*
X70440000Y-61547500D02*
X70440000Y-59727500D01*
X70490000Y-61547500D02*
X70440000Y-61547500D01*
X72390000Y-61547500D02*
X71610000Y-61547500D01*
X72560000Y-59727500D02*
X73560000Y-59727500D01*
X73560000Y-59727500D02*
X73560000Y-61547500D01*
X73560000Y-61547500D02*
X73510000Y-61547500D01*
X71950000Y-62327500D02*
X71620000Y-62087500D01*
X71950000Y-61847500D01*
X71950000Y-62327500D01*
G36*
X71950000Y-62327500D02*
G01*
X71620000Y-62087500D01*
X71950000Y-61847500D01*
X71950000Y-62327500D01*
G37*
D14*
X61690000Y-66150000D02*
X60350000Y-66150000D01*
X61690000Y-67850000D02*
X60350000Y-67850000D01*
D13*
X69764564Y-66090000D02*
X68310436Y-66090000D01*
X69764564Y-67910000D02*
X68310436Y-67910000D01*
%LPC*%
D16*
X59700000Y-62000000D03*
X62500000Y-62000000D03*
D17*
X76000000Y-67000000D03*
D18*
X75600000Y-46500000D03*
D19*
X88500000Y-46500000D03*
X62700000Y-46500000D03*
D20*
X82000000Y-62000000D03*
X88500000Y-62000000D03*
D17*
X89500000Y-67000000D03*
D21*
X71050000Y-61775000D03*
X72950000Y-61775000D03*
X72000000Y-59500000D03*
D22*
X62500000Y-67000000D03*
X59540000Y-67000000D03*
D23*
X70500000Y-67000000D03*
X67575000Y-67000000D03*
%LPD*%
M02*
