G04 #@! TF.GenerationSoftware,KiCad,Pcbnew,9.0.7*
G04 #@! TF.CreationDate,2026-02-22T02:57:33-08:00*
G04 #@! TF.ProjectId,Cup Cover,43757020-436f-4766-9572-2e6b69636164,rev?*
G04 #@! TF.SameCoordinates,Original*
G04 #@! TF.FileFunction,Copper,L1,Top*
G04 #@! TF.FilePolarity,Positive*
%FSLAX46Y46*%
G04 Gerber Fmt 4.6, Leading zero omitted, Abs format (unit mm)*
G04 Created by KiCad (PCBNEW 9.0.7) date 2026-02-22 02:57:33*
%MOMM*%
%LPD*%
G01*
G04 APERTURE LIST*
G04 Aperture macros list*
%AMRoundRect*
0 Rectangle with rounded corners*
0 $1 Rounding radius*
0 $2 $3 $4 $5 $6 $7 $8 $9 X,Y pos of 4 corners*
0 Add a 4 corners polygon primitive as box body*
4,1,4,$2,$3,$4,$5,$6,$7,$8,$9,$2,$3,0*
0 Add four circle primitives for the rounded corners*
1,1,$1+$1,$2,$3*
1,1,$1+$1,$4,$5*
1,1,$1+$1,$6,$7*
1,1,$1+$1,$8,$9*
0 Add four rect primitives between the rounded corners*
20,1,$1+$1,$2,$3,$4,$5,0*
20,1,$1+$1,$4,$5,$6,$7,0*
20,1,$1+$1,$6,$7,$8,$9,0*
20,1,$1+$1,$8,$9,$2,$3,0*%
G04 Aperture macros list end*
G04 #@! TA.AperFunction,SMDPad,CuDef*
%ADD10RoundRect,0.250000X-0.375000X-0.625000X0.375000X-0.625000X0.375000X0.625000X-0.375000X0.625000X0*%
G04 #@! TD*
G04 #@! TA.AperFunction,ComponentPad*
%ADD11C,1.530000*%
G04 #@! TD*
G04 #@! TA.AperFunction,SMDPad,CuDef*
%ADD12C,17.900000*%
G04 #@! TD*
G04 #@! TA.AperFunction,SMDPad,CuDef*
%ADD13R,5.700000X6.100000*%
G04 #@! TD*
G04 #@! TA.AperFunction,SMDPad,CuDef*
%ADD14R,1.500000X1.400000*%
G04 #@! TD*
G04 #@! TA.AperFunction,SMDPad,CuDef*
%ADD15RoundRect,0.150000X0.150000X-0.512500X0.150000X0.512500X-0.150000X0.512500X-0.150000X-0.512500X0*%
G04 #@! TD*
G04 #@! TA.AperFunction,SMDPad,CuDef*
%ADD16R,0.970000X1.730000*%
G04 #@! TD*
G04 #@! TA.AperFunction,SMDPad,CuDef*
%ADD17RoundRect,0.250000X0.312500X0.625000X-0.312500X0.625000X-0.312500X-0.625000X0.312500X-0.625000X0*%
G04 #@! TD*
G04 #@! TA.AperFunction,Conductor*
%ADD18C,0.200000*%
G04 #@! TD*
G04 APERTURE END LIST*
D10*
X59700000Y-62000000D03*
X62500000Y-62000000D03*
D11*
X76000000Y-67000000D03*
D12*
X75600000Y-46500000D03*
D13*
X88500000Y-46500000D03*
X62700000Y-46500000D03*
D14*
X82000000Y-62000000D03*
X88500000Y-62000000D03*
D11*
X89500000Y-67000000D03*
D15*
X71050000Y-61775000D03*
X72950000Y-61775000D03*
X72000000Y-59500000D03*
D16*
X62500000Y-67000000D03*
X59540000Y-67000000D03*
D17*
X70500000Y-67000000D03*
X67575000Y-67000000D03*
D18*
X82000000Y-61500000D02*
X82000000Y-62000000D01*
X77500000Y-57000000D02*
X82000000Y-61500000D01*
X70500000Y-57000000D02*
X77500000Y-57000000D01*
X62700000Y-49200000D02*
X70500000Y-57000000D01*
X62700000Y-46500000D02*
X62700000Y-49200000D01*
X75600000Y-46500000D02*
X75550000Y-46450000D01*
X88500000Y-46500000D02*
X88500000Y-55500000D01*
X88500000Y-55500000D02*
X82000000Y-62000000D01*
X70000000Y-59500000D02*
X62500000Y-67000000D01*
X72000000Y-59500000D02*
X70000000Y-59500000D01*
X71986500Y-60811500D02*
X72950000Y-61775000D01*
X67575000Y-63945532D02*
X70709032Y-60811500D01*
X67575000Y-67000000D02*
X67575000Y-63945532D01*
X70709032Y-60811500D02*
X71986500Y-60811500D01*
X59540000Y-64960000D02*
X62500000Y-62000000D01*
X59540000Y-67000000D02*
X59540000Y-64960000D01*
X72276000Y-63001000D02*
X71050000Y-61775000D01*
X88500000Y-62000000D02*
X88500000Y-66000000D01*
X88500000Y-66000000D02*
X89500000Y-67000000D01*
X88500000Y-62000000D02*
X87499000Y-63001000D01*
X87499000Y-63001000D02*
X72276000Y-63001000D01*
X76000000Y-67000000D02*
X70500000Y-67000000D01*
G04 #@! TA.AperFunction,Conductor*
G36*
X96004043Y-36500765D02*
G01*
X96252895Y-36517075D01*
X96268953Y-36519190D01*
X96476105Y-36560395D01*
X96509535Y-36567045D01*
X96525202Y-36571243D01*
X96694947Y-36628863D01*
X96757481Y-36650091D01*
X96772458Y-36656294D01*
X96981799Y-36759529D01*
X96992460Y-36764787D01*
X97006508Y-36772897D01*
X97210464Y-36909177D01*
X97223325Y-36919045D01*
X97315688Y-37000046D01*
X97407749Y-37080781D01*
X97419218Y-37092250D01*
X97580951Y-37276671D01*
X97590825Y-37289539D01*
X97727102Y-37493492D01*
X97735212Y-37507539D01*
X97843702Y-37727534D01*
X97849909Y-37742520D01*
X97928756Y-37974797D01*
X97932954Y-37990464D01*
X97980807Y-38231035D01*
X97982925Y-38247116D01*
X97999235Y-38495956D01*
X97999500Y-38504066D01*
X97999500Y-68995933D01*
X97999235Y-69004043D01*
X97982925Y-69252883D01*
X97980807Y-69268964D01*
X97932954Y-69509535D01*
X97928756Y-69525202D01*
X97849909Y-69757479D01*
X97843702Y-69772465D01*
X97735212Y-69992460D01*
X97727102Y-70006507D01*
X97590825Y-70210460D01*
X97580951Y-70223328D01*
X97419218Y-70407749D01*
X97407749Y-70419218D01*
X97223328Y-70580951D01*
X97210460Y-70590825D01*
X97006507Y-70727102D01*
X96992460Y-70735212D01*
X96772465Y-70843702D01*
X96757479Y-70849909D01*
X96525202Y-70928756D01*
X96509535Y-70932954D01*
X96268964Y-70980807D01*
X96252883Y-70982925D01*
X96004043Y-70999235D01*
X95995933Y-70999500D01*
X55004067Y-70999500D01*
X54995957Y-70999235D01*
X54747116Y-70982925D01*
X54731035Y-70980807D01*
X54490464Y-70932954D01*
X54474797Y-70928756D01*
X54242520Y-70849909D01*
X54227534Y-70843702D01*
X54007539Y-70735212D01*
X53993492Y-70727102D01*
X53789539Y-70590825D01*
X53776671Y-70580951D01*
X53774081Y-70578680D01*
X53592250Y-70419218D01*
X53580781Y-70407749D01*
X53419048Y-70223328D01*
X53409174Y-70210460D01*
X53272897Y-70006507D01*
X53264787Y-69992460D01*
X53259529Y-69981799D01*
X53156294Y-69772458D01*
X53150090Y-69757479D01*
X53071243Y-69525202D01*
X53067045Y-69509535D01*
X53043618Y-69391759D01*
X53019190Y-69268953D01*
X53017075Y-69252895D01*
X53000765Y-69004043D01*
X53000500Y-68995933D01*
X53000500Y-68872619D01*
X53381466Y-68872619D01*
X53381466Y-68939471D01*
X53381466Y-69127381D01*
X53421320Y-69379008D01*
X53500046Y-69621301D01*
X53615705Y-69848297D01*
X53765451Y-70054404D01*
X53945596Y-70234549D01*
X54151703Y-70384295D01*
X54378699Y-70499954D01*
X54620992Y-70578680D01*
X54872619Y-70618534D01*
X54872620Y-70618534D01*
X55127380Y-70618534D01*
X55127381Y-70618534D01*
X55379008Y-70578680D01*
X55621301Y-70499954D01*
X55848297Y-70384295D01*
X56054404Y-70234549D01*
X56234549Y-70054404D01*
X56384295Y-69848297D01*
X56499954Y-69621301D01*
X56578680Y-69379008D01*
X56618534Y-69127381D01*
X56618534Y-68872619D01*
X94381466Y-68872619D01*
X94381466Y-68939471D01*
X94381466Y-69127381D01*
X94421320Y-69379008D01*
X94500046Y-69621301D01*
X94615705Y-69848297D01*
X94765451Y-70054404D01*
X94945596Y-70234549D01*
X95151703Y-70384295D01*
X95378699Y-70499954D01*
X95620992Y-70578680D01*
X95872619Y-70618534D01*
X95872620Y-70618534D01*
X96127380Y-70618534D01*
X96127381Y-70618534D01*
X96379008Y-70578680D01*
X96621301Y-70499954D01*
X96848297Y-70384295D01*
X97054404Y-70234549D01*
X97234549Y-70054404D01*
X97384295Y-69848297D01*
X97499954Y-69621301D01*
X97578680Y-69379008D01*
X97618534Y-69127381D01*
X97618534Y-68872619D01*
X97578680Y-68620992D01*
X97499954Y-68378699D01*
X97384295Y-68151703D01*
X97234549Y-67945596D01*
X97054404Y-67765451D01*
X96848297Y-67615705D01*
X96621301Y-67500046D01*
X96379008Y-67421320D01*
X96127381Y-67381466D01*
X95872619Y-67381466D01*
X95746805Y-67401393D01*
X95620991Y-67421320D01*
X95508574Y-67457846D01*
X95378699Y-67500046D01*
X95378696Y-67500047D01*
X95378694Y-67500048D01*
X95151701Y-67615706D01*
X95151698Y-67615708D01*
X95070066Y-67675018D01*
X94945596Y-67765451D01*
X94945594Y-67765453D01*
X94945593Y-67765453D01*
X94765453Y-67945593D01*
X94765453Y-67945594D01*
X94765451Y-67945596D01*
X94696027Y-68041149D01*
X94615708Y-68151698D01*
X94615706Y-68151701D01*
X94500048Y-68378694D01*
X94500047Y-68378696D01*
X94500046Y-68378699D01*
X94421320Y-68620992D01*
X94381466Y-68872619D01*
X56618534Y-68872619D01*
X56578680Y-68620992D01*
X56499954Y-68378699D01*
X56384295Y-68151703D01*
X56234549Y-67945596D01*
X56054404Y-67765451D01*
X55848297Y-67615705D01*
X55621301Y-67500046D01*
X55379008Y-67421320D01*
X55127381Y-67381466D01*
X54872619Y-67381466D01*
X54746805Y-67401393D01*
X54620991Y-67421320D01*
X54508574Y-67457846D01*
X54378699Y-67500046D01*
X54378696Y-67500047D01*
X54378694Y-67500048D01*
X54151701Y-67615706D01*
X54151698Y-67615708D01*
X54070066Y-67675018D01*
X53945596Y-67765451D01*
X53945594Y-67765453D01*
X53945593Y-67765453D01*
X53765453Y-67945593D01*
X53765453Y-67945594D01*
X53765451Y-67945596D01*
X53696027Y-68041149D01*
X53615708Y-68151698D01*
X53615706Y-68151701D01*
X53500048Y-68378694D01*
X53500047Y-68378696D01*
X53500046Y-68378699D01*
X53421320Y-68620992D01*
X53381466Y-68872619D01*
X53000500Y-68872619D01*
X53000500Y-66087135D01*
X58554500Y-66087135D01*
X58554500Y-67912870D01*
X58554501Y-67912876D01*
X58560908Y-67972483D01*
X58611202Y-68107328D01*
X58611206Y-68107335D01*
X58697452Y-68222544D01*
X58697455Y-68222547D01*
X58812664Y-68308793D01*
X58812671Y-68308797D01*
X58947517Y-68359091D01*
X58947516Y-68359091D01*
X58954444Y-68359835D01*
X59007127Y-68365500D01*
X60072872Y-68365499D01*
X60132483Y-68359091D01*
X60267331Y-68308796D01*
X60382546Y-68222546D01*
X60468796Y-68107331D01*
X60519091Y-67972483D01*
X60525500Y-67912873D01*
X60525499Y-66087128D01*
X60519867Y-66034733D01*
X60519091Y-66027516D01*
X60468797Y-65892671D01*
X60468793Y-65892664D01*
X60382547Y-65777455D01*
X60382544Y-65777452D01*
X60267335Y-65691206D01*
X60267329Y-65691203D01*
X60221166Y-65673985D01*
X60165233Y-65632113D01*
X60140816Y-65566649D01*
X60140500Y-65557803D01*
X60140500Y-65260096D01*
X60160185Y-65193057D01*
X60176814Y-65172420D01*
X61941456Y-63407777D01*
X62002777Y-63374294D01*
X62041734Y-63372102D01*
X62074991Y-63375500D01*
X62925008Y-63375499D01*
X62925016Y-63375498D01*
X62925019Y-63375498D01*
X62981650Y-63369713D01*
X63027797Y-63364999D01*
X63194334Y-63309814D01*
X63343656Y-63217712D01*
X63467712Y-63093656D01*
X63559814Y-62944334D01*
X63614999Y-62777797D01*
X63625500Y-62675009D01*
X63625499Y-61324992D01*
X63614999Y-61222203D01*
X63559814Y-61055666D01*
X63467712Y-60906344D01*
X63343656Y-60782288D01*
X63194334Y-60690186D01*
X63027797Y-60635001D01*
X63027795Y-60635000D01*
X62925010Y-60624500D01*
X62074998Y-60624500D01*
X62074980Y-60624501D01*
X61972203Y-60635000D01*
X61972200Y-60635001D01*
X61805668Y-60690185D01*
X61805663Y-60690187D01*
X61656342Y-60782289D01*
X61532289Y-60906342D01*
X61440187Y-61055663D01*
X61440185Y-61055668D01*
X61434460Y-61072945D01*
X61385001Y-61222203D01*
X61385001Y-61222204D01*
X61385000Y-61222204D01*
X61374500Y-61324983D01*
X61374500Y-62224901D01*
X61354815Y-62291940D01*
X61338181Y-62312582D01*
X61036681Y-62614082D01*
X60975358Y-62647567D01*
X60905666Y-62642583D01*
X60849733Y-62600711D01*
X60825316Y-62535247D01*
X60825000Y-62526401D01*
X60825000Y-62250000D01*
X59950000Y-62250000D01*
X59950000Y-63374999D01*
X59976402Y-63374999D01*
X60043441Y-63394684D01*
X60089196Y-63447488D01*
X60099140Y-63516646D01*
X60070115Y-63580202D01*
X60064083Y-63586680D01*
X59171286Y-64479478D01*
X59059481Y-64591282D01*
X59059479Y-64591285D01*
X59009361Y-64678094D01*
X59009359Y-64678096D01*
X58980425Y-64728209D01*
X58980424Y-64728210D01*
X58980423Y-64728215D01*
X58939499Y-64880943D01*
X58939499Y-64880945D01*
X58939499Y-65049046D01*
X58939500Y-65049059D01*
X58939500Y-65557803D01*
X58919815Y-65624842D01*
X58867011Y-65670597D01*
X58858834Y-65673985D01*
X58812670Y-65691203D01*
X58812664Y-65691206D01*
X58697455Y-65777452D01*
X58697452Y-65777455D01*
X58611206Y-65892664D01*
X58611202Y-65892671D01*
X58560908Y-66027517D01*
X58554501Y-66087116D01*
X58554501Y-66087123D01*
X58554500Y-66087135D01*
X53000500Y-66087135D01*
X53000500Y-62674986D01*
X58575001Y-62674986D01*
X58585494Y-62777697D01*
X58640641Y-62944119D01*
X58640643Y-62944124D01*
X58732684Y-63093345D01*
X58856654Y-63217315D01*
X59005875Y-63309356D01*
X59005880Y-63309358D01*
X59172302Y-63364505D01*
X59172309Y-63364506D01*
X59275019Y-63374999D01*
X59449999Y-63374999D01*
X59450000Y-63374998D01*
X59450000Y-62250000D01*
X58575001Y-62250000D01*
X58575001Y-62674986D01*
X53000500Y-62674986D01*
X53000500Y-61325013D01*
X58575000Y-61325013D01*
X58575000Y-61750000D01*
X59450000Y-61750000D01*
X59950000Y-61750000D01*
X60824999Y-61750000D01*
X60824999Y-61325028D01*
X60824998Y-61325013D01*
X60814505Y-61222302D01*
X60759358Y-61055880D01*
X60759356Y-61055875D01*
X60667315Y-60906654D01*
X60543345Y-60782684D01*
X60394124Y-60690643D01*
X60394119Y-60690641D01*
X60227697Y-60635494D01*
X60227690Y-60635493D01*
X60124986Y-60625000D01*
X59950000Y-60625000D01*
X59950000Y-61750000D01*
X59450000Y-61750000D01*
X59450000Y-60625000D01*
X59275029Y-60625000D01*
X59275012Y-60625001D01*
X59172302Y-60635494D01*
X59005880Y-60690641D01*
X59005875Y-60690643D01*
X58856654Y-60782684D01*
X58732684Y-60906654D01*
X58640643Y-61055875D01*
X58640641Y-61055880D01*
X58585494Y-61222302D01*
X58585493Y-61222309D01*
X58575000Y-61325013D01*
X53000500Y-61325013D01*
X53000500Y-43402135D01*
X59349500Y-43402135D01*
X59349500Y-49597870D01*
X59349501Y-49597876D01*
X59355908Y-49657483D01*
X59406202Y-49792328D01*
X59406206Y-49792335D01*
X59492452Y-49907544D01*
X59492455Y-49907547D01*
X59607664Y-49993793D01*
X59607671Y-49993797D01*
X59742517Y-50044091D01*
X59742516Y-50044091D01*
X59749444Y-50044835D01*
X59802127Y-50050500D01*
X62649902Y-50050499D01*
X62716941Y-50070184D01*
X62737582Y-50086817D01*
X70131284Y-57480520D01*
X70268215Y-57559577D01*
X70420943Y-57600501D01*
X70420946Y-57600501D01*
X70586654Y-57600501D01*
X70586670Y-57600500D01*
X77199903Y-57600500D01*
X77266942Y-57620185D01*
X77287584Y-57636819D01*
X80723710Y-61072945D01*
X80757195Y-61134268D01*
X80756708Y-61189130D01*
X80755909Y-61192511D01*
X80749501Y-61252116D01*
X80749500Y-61252127D01*
X80749500Y-61823735D01*
X80749501Y-62276500D01*
X80729817Y-62343539D01*
X80677013Y-62389294D01*
X80625501Y-62400500D01*
X73874500Y-62400500D01*
X73807461Y-62380815D01*
X73761706Y-62328011D01*
X73750500Y-62276500D01*
X73750500Y-61196813D01*
X73750499Y-61196798D01*
X73747598Y-61159932D01*
X73747597Y-61159926D01*
X73701745Y-61002106D01*
X73701744Y-61002103D01*
X73701744Y-61002102D01*
X73618081Y-60860635D01*
X73618079Y-60860633D01*
X73618076Y-60860629D01*
X73501870Y-60744423D01*
X73501862Y-60744417D01*
X73360396Y-60660755D01*
X73360393Y-60660754D01*
X73202573Y-60614902D01*
X73202567Y-60614901D01*
X73165701Y-60612000D01*
X73165694Y-60612000D01*
X72767895Y-60612000D01*
X72700856Y-60592315D01*
X72655101Y-60539511D01*
X72645157Y-60470353D01*
X72665671Y-60422003D01*
X72664110Y-60421080D01*
X72678026Y-60397548D01*
X72751744Y-60272898D01*
X72797598Y-60115069D01*
X72800500Y-60078194D01*
X72800500Y-58921806D01*
X72797598Y-58884931D01*
X72751744Y-58727102D01*
X72668081Y-58585635D01*
X72668079Y-58585633D01*
X72668076Y-58585629D01*
X72551870Y-58469423D01*
X72551862Y-58469417D01*
X72410396Y-58385755D01*
X72410393Y-58385754D01*
X72252573Y-58339902D01*
X72252567Y-58339901D01*
X72215701Y-58337000D01*
X72215694Y-58337000D01*
X71784306Y-58337000D01*
X71784298Y-58337000D01*
X71747432Y-58339901D01*
X71747426Y-58339902D01*
X71589606Y-58385754D01*
X71589603Y-58385755D01*
X71448137Y-58469417D01*
X71448129Y-58469423D01*
X71331923Y-58585629D01*
X71331917Y-58585637D01*
X71248255Y-58727103D01*
X71248254Y-58727104D01*
X71224143Y-58810096D01*
X71186536Y-58868981D01*
X71123064Y-58898187D01*
X71105067Y-58899500D01*
X70086670Y-58899500D01*
X70086654Y-58899499D01*
X70079058Y-58899499D01*
X69920943Y-58899499D01*
X69844579Y-58919961D01*
X69768214Y-58940423D01*
X69768209Y-58940426D01*
X69631290Y-59019475D01*
X69631282Y-59019481D01*
X63052582Y-65598181D01*
X62991259Y-65631666D01*
X62964901Y-65634500D01*
X61967129Y-65634500D01*
X61967123Y-65634501D01*
X61907516Y-65640908D01*
X61772671Y-65691202D01*
X61772664Y-65691206D01*
X61657455Y-65777452D01*
X61657452Y-65777455D01*
X61571206Y-65892664D01*
X61571202Y-65892671D01*
X61520908Y-66027517D01*
X61514501Y-66087116D01*
X61514501Y-66087123D01*
X61514500Y-66087135D01*
X61514500Y-67912870D01*
X61514501Y-67912876D01*
X61520908Y-67972483D01*
X61571202Y-68107328D01*
X61571206Y-68107335D01*
X61657452Y-68222544D01*
X61657455Y-68222547D01*
X61772664Y-68308793D01*
X61772671Y-68308797D01*
X61907517Y-68359091D01*
X61907516Y-68359091D01*
X61914444Y-68359835D01*
X61967127Y-68365500D01*
X63032872Y-68365499D01*
X63092483Y-68359091D01*
X63227331Y-68308796D01*
X63342546Y-68222546D01*
X63428796Y-68107331D01*
X63479091Y-67972483D01*
X63485500Y-67912873D01*
X63485499Y-66915095D01*
X63505183Y-66848057D01*
X63521813Y-66827420D01*
X66868421Y-63480813D01*
X66885330Y-63471580D01*
X66899277Y-63458282D01*
X66915364Y-63455180D01*
X66929742Y-63447330D01*
X66948961Y-63448704D01*
X66967884Y-63445057D01*
X66983093Y-63451145D01*
X66999434Y-63452314D01*
X67014859Y-63463861D01*
X67032749Y-63471023D01*
X67042253Y-63484368D01*
X67055367Y-63494186D01*
X67062100Y-63512238D01*
X67073279Y-63527936D01*
X67074058Y-63544300D01*
X67079784Y-63559650D01*
X67075687Y-63578479D01*
X67076605Y-63597727D01*
X67065425Y-63625656D01*
X67064932Y-63627923D01*
X67063489Y-63630493D01*
X67044362Y-63663624D01*
X67044359Y-63663628D01*
X67015425Y-63713741D01*
X67015424Y-63713742D01*
X67015423Y-63713747D01*
X66974499Y-63866475D01*
X66974499Y-63866477D01*
X66974499Y-64034578D01*
X66974500Y-64034591D01*
X66974500Y-65601652D01*
X66954815Y-65668691D01*
X66915598Y-65707189D01*
X66871321Y-65734500D01*
X66793842Y-65782289D01*
X66669789Y-65906342D01*
X66577687Y-66055663D01*
X66577685Y-66055668D01*
X66567260Y-66087129D01*
X66522501Y-66222203D01*
X66522501Y-66222204D01*
X66522500Y-66222204D01*
X66512000Y-66324983D01*
X66512000Y-67675001D01*
X66512001Y-67675018D01*
X66522500Y-67777796D01*
X66522501Y-67777799D01*
X66577685Y-67944331D01*
X66577687Y-67944336D01*
X66578463Y-67945594D01*
X66669788Y-68093656D01*
X66793844Y-68217712D01*
X66943166Y-68309814D01*
X67109703Y-68364999D01*
X67212491Y-68375500D01*
X67937508Y-68375499D01*
X67937516Y-68375498D01*
X67937519Y-68375498D01*
X68035392Y-68365500D01*
X68040297Y-68364999D01*
X68206834Y-68309814D01*
X68356156Y-68217712D01*
X68480212Y-68093656D01*
X68572314Y-67944334D01*
X68627499Y-67777797D01*
X68638000Y-67675009D01*
X68637999Y-66324992D01*
X68637998Y-66324983D01*
X69437000Y-66324983D01*
X69437000Y-67675001D01*
X69437001Y-67675018D01*
X69447500Y-67777796D01*
X69447501Y-67777799D01*
X69502685Y-67944331D01*
X69502687Y-67944336D01*
X69503463Y-67945594D01*
X69594788Y-68093656D01*
X69718844Y-68217712D01*
X69868166Y-68309814D01*
X70034703Y-68364999D01*
X70137491Y-68375500D01*
X70862508Y-68375499D01*
X70862516Y-68375498D01*
X70862519Y-68375498D01*
X70960392Y-68365500D01*
X70965297Y-68364999D01*
X71131834Y-68309814D01*
X71281156Y-68217712D01*
X71405212Y-68093656D01*
X71497314Y-67944334D01*
X71552499Y-67777797D01*
X71554931Y-67753989D01*
X71559232Y-67711897D01*
X71585629Y-67647205D01*
X71642810Y-67607054D01*
X71682590Y-67600500D01*
X74809740Y-67600500D01*
X74876779Y-67620185D01*
X74915466Y-67659707D01*
X74917647Y-67663266D01*
X75034731Y-67824418D01*
X75175582Y-67965269D01*
X75336734Y-68082353D01*
X75472841Y-68151703D01*
X75514219Y-68172786D01*
X75703657Y-68234338D01*
X75703658Y-68234338D01*
X75703661Y-68234339D01*
X75900403Y-68265500D01*
X75900404Y-68265500D01*
X76099596Y-68265500D01*
X76099597Y-68265500D01*
X76296339Y-68234339D01*
X76296342Y-68234338D01*
X76296343Y-68234338D01*
X76485780Y-68172786D01*
X76485780Y-68172785D01*
X76485783Y-68172785D01*
X76663266Y-68082353D01*
X76824418Y-67965269D01*
X76965269Y-67824418D01*
X77082353Y-67663266D01*
X77172785Y-67485783D01*
X77234339Y-67296339D01*
X77265500Y-67099597D01*
X77265500Y-66900403D01*
X77234339Y-66703661D01*
X77234338Y-66703657D01*
X77234338Y-66703656D01*
X77172786Y-66514219D01*
X77155616Y-66480521D01*
X77082353Y-66336734D01*
X76965269Y-66175582D01*
X76824418Y-66034731D01*
X76663266Y-65917647D01*
X76614234Y-65892664D01*
X76485780Y-65827213D01*
X76296342Y-65765661D01*
X76148782Y-65742290D01*
X76099597Y-65734500D01*
X75900403Y-65734500D01*
X75834822Y-65744887D01*
X75703659Y-65765661D01*
X75703656Y-65765661D01*
X75514219Y-65827213D01*
X75336733Y-65917647D01*
X75332197Y-65920943D01*
X75175582Y-66034731D01*
X75175580Y-66034733D01*
X75175579Y-66034733D01*
X75034733Y-66175579D01*
X75034733Y-66175580D01*
X75034731Y-66175582D01*
X75000861Y-66222200D01*
X74917647Y-66336733D01*
X74915466Y-66340293D01*
X74863652Y-66387167D01*
X74809740Y-66399500D01*
X71682589Y-66399500D01*
X71615550Y-66379815D01*
X71569795Y-66327011D01*
X71559231Y-66288102D01*
X71557339Y-66269591D01*
X71552499Y-66222203D01*
X71497314Y-66055666D01*
X71405212Y-65906344D01*
X71281156Y-65782288D01*
X71133488Y-65691206D01*
X71131836Y-65690187D01*
X71131831Y-65690185D01*
X71100497Y-65679802D01*
X70965297Y-65635001D01*
X70965295Y-65635000D01*
X70862510Y-65624500D01*
X70137498Y-65624500D01*
X70137480Y-65624501D01*
X70034703Y-65635000D01*
X70034700Y-65635001D01*
X69868168Y-65690185D01*
X69868163Y-65690187D01*
X69718842Y-65782289D01*
X69594789Y-65906342D01*
X69502687Y-66055663D01*
X69502685Y-66055668D01*
X69492260Y-66087129D01*
X69447501Y-66222203D01*
X69447501Y-66222204D01*
X69447500Y-66222204D01*
X69437000Y-66324983D01*
X68637998Y-66324983D01*
X68627499Y-66222203D01*
X68572314Y-66055666D01*
X68480212Y-65906344D01*
X68356156Y-65782288D01*
X68234402Y-65707190D01*
X68187679Y-65655243D01*
X68175500Y-65601652D01*
X68175500Y-64245629D01*
X68195185Y-64178590D01*
X68211819Y-64157948D01*
X69112307Y-63257460D01*
X70043105Y-62326661D01*
X70104426Y-62293178D01*
X70174118Y-62298162D01*
X70230051Y-62340034D01*
X70249397Y-62384344D01*
X70250634Y-62383985D01*
X70298254Y-62547893D01*
X70298255Y-62547896D01*
X70381917Y-62689362D01*
X70381923Y-62689370D01*
X70498129Y-62805576D01*
X70498133Y-62805579D01*
X70498135Y-62805581D01*
X70639602Y-62889244D01*
X70681224Y-62901336D01*
X70797426Y-62935097D01*
X70797429Y-62935097D01*
X70797431Y-62935098D01*
X70834306Y-62938000D01*
X70834314Y-62938000D01*
X71265686Y-62938000D01*
X71265694Y-62938000D01*
X71299622Y-62935329D01*
X71367996Y-62949692D01*
X71397031Y-62971266D01*
X71791139Y-63365374D01*
X71791149Y-63365385D01*
X71795479Y-63369715D01*
X71795480Y-63369716D01*
X71907284Y-63481520D01*
X71929223Y-63494186D01*
X71994095Y-63531639D01*
X71994097Y-63531641D01*
X72032151Y-63553611D01*
X72044215Y-63560577D01*
X72196943Y-63601501D01*
X72196946Y-63601501D01*
X72362653Y-63601501D01*
X72362669Y-63601500D01*
X87412331Y-63601500D01*
X87412347Y-63601501D01*
X87419943Y-63601501D01*
X87578054Y-63601501D01*
X87578057Y-63601501D01*
X87730785Y-63560577D01*
X87730786Y-63560576D01*
X87738636Y-63558473D01*
X87739183Y-63560514D01*
X87797512Y-63554241D01*
X87859993Y-63585514D01*
X87895647Y-63645602D01*
X87899500Y-63676272D01*
X87899500Y-65913330D01*
X87899499Y-65913348D01*
X87899499Y-66079054D01*
X87899498Y-66079054D01*
X87940423Y-66231785D01*
X87969358Y-66281900D01*
X87969359Y-66281904D01*
X87969360Y-66281904D01*
X87994240Y-66324999D01*
X88019479Y-66368714D01*
X88019481Y-66368717D01*
X88138349Y-66487585D01*
X88138355Y-66487590D01*
X88233741Y-66582976D01*
X88267226Y-66644299D01*
X88266638Y-66699588D01*
X88265661Y-66703659D01*
X88234500Y-66900403D01*
X88234500Y-67099596D01*
X88265661Y-67296340D01*
X88265661Y-67296343D01*
X88327213Y-67485780D01*
X88415834Y-67659707D01*
X88417647Y-67663266D01*
X88534731Y-67824418D01*
X88675582Y-67965269D01*
X88836734Y-68082353D01*
X88972841Y-68151703D01*
X89014219Y-68172786D01*
X89203657Y-68234338D01*
X89203658Y-68234338D01*
X89203661Y-68234339D01*
X89400403Y-68265500D01*
X89400404Y-68265500D01*
X89599596Y-68265500D01*
X89599597Y-68265500D01*
X89796339Y-68234339D01*
X89796342Y-68234338D01*
X89796343Y-68234338D01*
X89985780Y-68172786D01*
X89985780Y-68172785D01*
X89985783Y-68172785D01*
X90163266Y-68082353D01*
X90324418Y-67965269D01*
X90465269Y-67824418D01*
X90582353Y-67663266D01*
X90672785Y-67485783D01*
X90734339Y-67296339D01*
X90765500Y-67099597D01*
X90765500Y-66900403D01*
X90734339Y-66703661D01*
X90734338Y-66703657D01*
X90734338Y-66703656D01*
X90672786Y-66514219D01*
X90655616Y-66480521D01*
X90582353Y-66336734D01*
X90465269Y-66175582D01*
X90324418Y-66034731D01*
X90163266Y-65917647D01*
X90114234Y-65892664D01*
X89985780Y-65827213D01*
X89796342Y-65765661D01*
X89648782Y-65742290D01*
X89599597Y-65734500D01*
X89400403Y-65734500D01*
X89243897Y-65759287D01*
X89174604Y-65750332D01*
X89121152Y-65705336D01*
X89100513Y-65638584D01*
X89100500Y-65636814D01*
X89100500Y-63324499D01*
X89120185Y-63257460D01*
X89172989Y-63211705D01*
X89224500Y-63200499D01*
X89297871Y-63200499D01*
X89297872Y-63200499D01*
X89357483Y-63194091D01*
X89492331Y-63143796D01*
X89607546Y-63057546D01*
X89693796Y-62942331D01*
X89744091Y-62807483D01*
X89750500Y-62747873D01*
X89750499Y-61252128D01*
X89744091Y-61192517D01*
X89731937Y-61159931D01*
X89693797Y-61057671D01*
X89693793Y-61057664D01*
X89607547Y-60942455D01*
X89607544Y-60942452D01*
X89492335Y-60856206D01*
X89492328Y-60856202D01*
X89357482Y-60805908D01*
X89357483Y-60805908D01*
X89297883Y-60799501D01*
X89297881Y-60799500D01*
X89297873Y-60799500D01*
X89297864Y-60799500D01*
X87702129Y-60799500D01*
X87702123Y-60799501D01*
X87642516Y-60805908D01*
X87507671Y-60856202D01*
X87507664Y-60856206D01*
X87392455Y-60942452D01*
X87392452Y-60942455D01*
X87306206Y-61057664D01*
X87306202Y-61057671D01*
X87255908Y-61192517D01*
X87249501Y-61252116D01*
X87249500Y-61252127D01*
X87249500Y-61823735D01*
X87249501Y-62276500D01*
X87229817Y-62343539D01*
X87177013Y-62389294D01*
X87125501Y-62400500D01*
X83374500Y-62400500D01*
X83307461Y-62380815D01*
X83261706Y-62328011D01*
X83250500Y-62276500D01*
X83250499Y-61650096D01*
X83270183Y-61583057D01*
X83286813Y-61562420D01*
X88868713Y-55980521D01*
X88868716Y-55980520D01*
X88980520Y-55868716D01*
X89030639Y-55781904D01*
X89059577Y-55731785D01*
X89100500Y-55579057D01*
X89100500Y-55420943D01*
X89100500Y-50174499D01*
X89120185Y-50107460D01*
X89172989Y-50061705D01*
X89224500Y-50050499D01*
X91397871Y-50050499D01*
X91397872Y-50050499D01*
X91457483Y-50044091D01*
X91592331Y-49993796D01*
X91707546Y-49907546D01*
X91793796Y-49792331D01*
X91844091Y-49657483D01*
X91850500Y-49597873D01*
X91850499Y-43402128D01*
X91844091Y-43342517D01*
X91793796Y-43207669D01*
X91793795Y-43207668D01*
X91793793Y-43207664D01*
X91707547Y-43092455D01*
X91707544Y-43092452D01*
X91592335Y-43006206D01*
X91592328Y-43006202D01*
X91457482Y-42955908D01*
X91457483Y-42955908D01*
X91397883Y-42949501D01*
X91397881Y-42949500D01*
X91397873Y-42949500D01*
X91397864Y-42949500D01*
X85602129Y-42949500D01*
X85602123Y-42949501D01*
X85542516Y-42955908D01*
X85407671Y-43006202D01*
X85407664Y-43006206D01*
X85292455Y-43092452D01*
X85292452Y-43092455D01*
X85206206Y-43207664D01*
X85206202Y-43207671D01*
X85155908Y-43342517D01*
X85149501Y-43402116D01*
X85149501Y-43402123D01*
X85149500Y-43402135D01*
X85149500Y-44819658D01*
X85129815Y-44886697D01*
X85077011Y-44932452D01*
X85007853Y-44942396D01*
X84944297Y-44913371D01*
X84906523Y-44854593D01*
X84903531Y-44842010D01*
X84843734Y-44515712D01*
X84707064Y-43961216D01*
X84707062Y-43961210D01*
X84537161Y-43415980D01*
X84334650Y-42882001D01*
X84100262Y-42361212D01*
X83834852Y-41855515D01*
X83539413Y-41366799D01*
X83539397Y-41366774D01*
X83214988Y-40896787D01*
X82862786Y-40447233D01*
X82862785Y-40447232D01*
X82484081Y-40019765D01*
X82484063Y-40019746D01*
X82458935Y-39994618D01*
X75953554Y-46499999D01*
X75953554Y-46500000D01*
X82458934Y-53005380D01*
X82484079Y-52980236D01*
X82484096Y-52980218D01*
X82862785Y-52552767D01*
X82862786Y-52552766D01*
X83214988Y-52103212D01*
X83539397Y-51633225D01*
X83539413Y-51633200D01*
X83834852Y-51144484D01*
X84100262Y-50638787D01*
X84334650Y-50117998D01*
X84537161Y-49584019D01*
X84707062Y-49038789D01*
X84707064Y-49038783D01*
X84843735Y-48484284D01*
X84903531Y-48157987D01*
X84934977Y-48095593D01*
X84995164Y-48060106D01*
X85064982Y-48062792D01*
X85122265Y-48102797D01*
X85148825Y-48167421D01*
X85149500Y-48180338D01*
X85149500Y-49597870D01*
X85149501Y-49597876D01*
X85155908Y-49657483D01*
X85206202Y-49792328D01*
X85206206Y-49792335D01*
X85292452Y-49907544D01*
X85292455Y-49907547D01*
X85407664Y-49993793D01*
X85407671Y-49993797D01*
X85542517Y-50044091D01*
X85542516Y-50044091D01*
X85549444Y-50044835D01*
X85602127Y-50050500D01*
X87775500Y-50050499D01*
X87842539Y-50070184D01*
X87888294Y-50122987D01*
X87899500Y-50174499D01*
X87899500Y-55199902D01*
X87879815Y-55266941D01*
X87863181Y-55287583D01*
X82387583Y-60763181D01*
X82360655Y-60777884D01*
X82334837Y-60794477D01*
X82328636Y-60795368D01*
X82326260Y-60796666D01*
X82299902Y-60799500D01*
X82200097Y-60799500D01*
X82133058Y-60779815D01*
X82112416Y-60763181D01*
X77987590Y-56638355D01*
X77987588Y-56638352D01*
X77868717Y-56519481D01*
X77868716Y-56519480D01*
X77781904Y-56469360D01*
X77781904Y-56469359D01*
X77781900Y-56469358D01*
X77731785Y-56440423D01*
X77579057Y-56399499D01*
X77420943Y-56399499D01*
X77413347Y-56399499D01*
X77413331Y-56399500D01*
X70800098Y-56399500D01*
X70733059Y-56379815D01*
X70712417Y-56363181D01*
X67744489Y-53395253D01*
X67708170Y-53358934D01*
X69094618Y-53358934D01*
X69119746Y-53384063D01*
X69119765Y-53384081D01*
X69547232Y-53762785D01*
X69547233Y-53762786D01*
X69996787Y-54114988D01*
X70466774Y-54439397D01*
X70466799Y-54439413D01*
X70955515Y-54734852D01*
X71461212Y-55000262D01*
X71982001Y-55234650D01*
X72515980Y-55437161D01*
X73061210Y-55607062D01*
X73061216Y-55607064D01*
X73615712Y-55743734D01*
X74177468Y-55846680D01*
X74744394Y-55915518D01*
X75314442Y-55949999D01*
X75314464Y-55950000D01*
X75885536Y-55950000D01*
X75885557Y-55949999D01*
X76455605Y-55915518D01*
X77022531Y-55846680D01*
X77584287Y-55743734D01*
X78138783Y-55607064D01*
X78138789Y-55607062D01*
X78684019Y-55437161D01*
X79217998Y-55234650D01*
X79738787Y-55000262D01*
X80244484Y-54734852D01*
X80733200Y-54439413D01*
X80733225Y-54439397D01*
X81203212Y-54114988D01*
X81652766Y-53762786D01*
X81652767Y-53762785D01*
X82080218Y-53384096D01*
X82080236Y-53384079D01*
X82105380Y-53358934D01*
X75600000Y-46853554D01*
X69094618Y-53358934D01*
X67708170Y-53358934D01*
X64611415Y-50262180D01*
X64577930Y-50200857D01*
X64582914Y-50131165D01*
X64624786Y-50075232D01*
X64690250Y-50050815D01*
X64699096Y-50050499D01*
X65597871Y-50050499D01*
X65597872Y-50050499D01*
X65657483Y-50044091D01*
X65792331Y-49993796D01*
X65907546Y-49907546D01*
X65993796Y-49792331D01*
X66044091Y-49657483D01*
X66050500Y-49597873D01*
X66050499Y-48180338D01*
X66070184Y-48113302D01*
X66122987Y-48067547D01*
X66192146Y-48057603D01*
X66255702Y-48086628D01*
X66293476Y-48145406D01*
X66296468Y-48157989D01*
X66356265Y-48484287D01*
X66492935Y-49038783D01*
X66492937Y-49038789D01*
X66662838Y-49584019D01*
X66865349Y-50117998D01*
X67099737Y-50638787D01*
X67365147Y-51144484D01*
X67660586Y-51633200D01*
X67660602Y-51633225D01*
X67985011Y-52103212D01*
X68337213Y-52552766D01*
X68337214Y-52552767D01*
X68715918Y-52980234D01*
X68715936Y-52980253D01*
X68741064Y-53005380D01*
X75246446Y-46499999D01*
X68741064Y-39994618D01*
X68715918Y-40019764D01*
X68337214Y-40447232D01*
X68337213Y-40447233D01*
X67985011Y-40896787D01*
X67660602Y-41366774D01*
X67660586Y-41366799D01*
X67365147Y-41855515D01*
X67099737Y-42361212D01*
X66865349Y-42882001D01*
X66662838Y-43415980D01*
X66492937Y-43961210D01*
X66492935Y-43961216D01*
X66356265Y-44515712D01*
X66296468Y-44842013D01*
X66265021Y-44904406D01*
X66204835Y-44939893D01*
X66135017Y-44937207D01*
X66077734Y-44897202D01*
X66051174Y-44832577D01*
X66050499Y-44819661D01*
X66050499Y-43402129D01*
X66050498Y-43402123D01*
X66050497Y-43402116D01*
X66044091Y-43342517D01*
X65993796Y-43207669D01*
X65993795Y-43207668D01*
X65993793Y-43207664D01*
X65907547Y-43092455D01*
X65907544Y-43092452D01*
X65792335Y-43006206D01*
X65792328Y-43006202D01*
X65657482Y-42955908D01*
X65657483Y-42955908D01*
X65597883Y-42949501D01*
X65597881Y-42949500D01*
X65597873Y-42949500D01*
X65597864Y-42949500D01*
X59802129Y-42949500D01*
X59802123Y-42949501D01*
X59742516Y-42955908D01*
X59607671Y-43006202D01*
X59607664Y-43006206D01*
X59492455Y-43092452D01*
X59492452Y-43092455D01*
X59406206Y-43207664D01*
X59406202Y-43207671D01*
X59355908Y-43342517D01*
X59349501Y-43402116D01*
X59349501Y-43402123D01*
X59349500Y-43402135D01*
X53000500Y-43402135D01*
X53000500Y-38504066D01*
X53000765Y-38495957D01*
X53004467Y-38439471D01*
X53008849Y-38372619D01*
X53381466Y-38372619D01*
X53381466Y-38439471D01*
X53381466Y-38627381D01*
X53421320Y-38879008D01*
X53500046Y-39121301D01*
X53615705Y-39348297D01*
X53765451Y-39554404D01*
X53945596Y-39734549D01*
X54151703Y-39884295D01*
X54378699Y-39999954D01*
X54620992Y-40078680D01*
X54872619Y-40118534D01*
X54872620Y-40118534D01*
X55127380Y-40118534D01*
X55127381Y-40118534D01*
X55379008Y-40078680D01*
X55621301Y-39999954D01*
X55848297Y-39884295D01*
X56054404Y-39734549D01*
X56147889Y-39641064D01*
X69094618Y-39641064D01*
X75599999Y-46146446D01*
X82105381Y-39641064D01*
X82080253Y-39615936D01*
X82080234Y-39615918D01*
X81652767Y-39237214D01*
X81652766Y-39237213D01*
X81203212Y-38885011D01*
X80733225Y-38560602D01*
X80733200Y-38560586D01*
X80589744Y-38473864D01*
X80422264Y-38372619D01*
X94381466Y-38372619D01*
X94381466Y-38439471D01*
X94381466Y-38627381D01*
X94421320Y-38879008D01*
X94500046Y-39121301D01*
X94615705Y-39348297D01*
X94765451Y-39554404D01*
X94945596Y-39734549D01*
X95151703Y-39884295D01*
X95378699Y-39999954D01*
X95620992Y-40078680D01*
X95872619Y-40118534D01*
X95872620Y-40118534D01*
X96127380Y-40118534D01*
X96127381Y-40118534D01*
X96379008Y-40078680D01*
X96621301Y-39999954D01*
X96848297Y-39884295D01*
X97054404Y-39734549D01*
X97234549Y-39554404D01*
X97384295Y-39348297D01*
X97499954Y-39121301D01*
X97578680Y-38879008D01*
X97618534Y-38627381D01*
X97618534Y-38372619D01*
X97578680Y-38120992D01*
X97499954Y-37878699D01*
X97384295Y-37651703D01*
X97234549Y-37445596D01*
X97054404Y-37265451D01*
X96848297Y-37115705D01*
X96621301Y-37000046D01*
X96379008Y-36921320D01*
X96127381Y-36881466D01*
X95872619Y-36881466D01*
X95746805Y-36901393D01*
X95620991Y-36921320D01*
X95508574Y-36957846D01*
X95378699Y-37000046D01*
X95378696Y-37000047D01*
X95378694Y-37000048D01*
X95151701Y-37115706D01*
X95151698Y-37115708D01*
X95041149Y-37196027D01*
X94945596Y-37265451D01*
X94945594Y-37265453D01*
X94945593Y-37265453D01*
X94765453Y-37445593D01*
X94765453Y-37445594D01*
X94765451Y-37445596D01*
X94720447Y-37507539D01*
X94615708Y-37651698D01*
X94615706Y-37651701D01*
X94500048Y-37878694D01*
X94500047Y-37878696D01*
X94500046Y-37878699D01*
X94421320Y-38120992D01*
X94381466Y-38372619D01*
X80422264Y-38372619D01*
X80244484Y-38265147D01*
X79738787Y-37999737D01*
X79217998Y-37765349D01*
X78684019Y-37562838D01*
X78138789Y-37392937D01*
X78138783Y-37392935D01*
X77584287Y-37256265D01*
X77022531Y-37153319D01*
X76455605Y-37084481D01*
X75885557Y-37050000D01*
X75314442Y-37050000D01*
X74744394Y-37084481D01*
X74177468Y-37153319D01*
X73615712Y-37256265D01*
X73061216Y-37392935D01*
X73061210Y-37392937D01*
X72515980Y-37562838D01*
X71982001Y-37765349D01*
X71461212Y-37999737D01*
X70955515Y-38265147D01*
X70466799Y-38560586D01*
X70466774Y-38560602D01*
X69996787Y-38885011D01*
X69547233Y-39237213D01*
X69547232Y-39237214D01*
X69119764Y-39615918D01*
X69094618Y-39641064D01*
X56147889Y-39641064D01*
X56234549Y-39554404D01*
X56384295Y-39348297D01*
X56499954Y-39121301D01*
X56578680Y-38879008D01*
X56618534Y-38627381D01*
X56618534Y-38372619D01*
X56578680Y-38120992D01*
X56499954Y-37878699D01*
X56384295Y-37651703D01*
X56234549Y-37445596D01*
X56054404Y-37265451D01*
X55848297Y-37115705D01*
X55621301Y-37000046D01*
X55379008Y-36921320D01*
X55127381Y-36881466D01*
X54872619Y-36881466D01*
X54746805Y-36901393D01*
X54620991Y-36921320D01*
X54508574Y-36957846D01*
X54378699Y-37000046D01*
X54378696Y-37000047D01*
X54378694Y-37000048D01*
X54151701Y-37115706D01*
X54151698Y-37115708D01*
X54041149Y-37196027D01*
X53945596Y-37265451D01*
X53945594Y-37265453D01*
X53945593Y-37265453D01*
X53765453Y-37445593D01*
X53765453Y-37445594D01*
X53765451Y-37445596D01*
X53720447Y-37507539D01*
X53615708Y-37651698D01*
X53615706Y-37651701D01*
X53500048Y-37878694D01*
X53500047Y-37878696D01*
X53500046Y-37878699D01*
X53421320Y-38120992D01*
X53381466Y-38372619D01*
X53008849Y-38372619D01*
X53017075Y-38247102D01*
X53019190Y-38231048D01*
X53067045Y-37990462D01*
X53071243Y-37974797D01*
X53094337Y-37906762D01*
X53150093Y-37742512D01*
X53156291Y-37727547D01*
X53264790Y-37507533D01*
X53272893Y-37493498D01*
X53409182Y-37289527D01*
X53419039Y-37276681D01*
X53580786Y-37092244D01*
X53592244Y-37080786D01*
X53776681Y-36919039D01*
X53789527Y-36909182D01*
X53993498Y-36772893D01*
X54007533Y-36764790D01*
X54227547Y-36656291D01*
X54242512Y-36650093D01*
X54406762Y-36594337D01*
X54474797Y-36571243D01*
X54490464Y-36567045D01*
X54731048Y-36519190D01*
X54747102Y-36517075D01*
X54995957Y-36500765D01*
X55004067Y-36500500D01*
X55065892Y-36500500D01*
X95934108Y-36500500D01*
X95995933Y-36500500D01*
X96004043Y-36500765D01*
G37*
G04 #@! TD.AperFunction*
M02*
